<svg id="svg" xmlns="http://www.w3.org/2000/svg" xmlns:xlink="http://www.w3.org/1999/xlink" width="400" height="400" viewBox="0, 0, 400,400"><g id="svgg"><path id="path0" d="M58.521 51.818 C 56.628 52.818,54.023 55.133,52.734 56.963 L 50.391 60.291 50.391 200.000 L 50.391 339.709 52.734 343.037 C 54.023 344.867,56.628 347.182,58.521 348.182 L 61.965 350.000 200.000 350.000 L 338.035 350.000 341.479 348.182 C 343.372 347.182,345.977 344.867,347.266 343.037 L 349.609 339.709 349.609 200.000 L 349.609 60.291 347.266 56.963 C 345.977 55.133,343.372 52.818,341.479 51.818 L 338.035 50.000 200.000 50.000 L 61.965 50.000 58.521 51.818 M316.406 133.203 L 316.406 182.813 200.000 182.813 L 83.594 182.813 83.594 133.203 L 83.594 83.594 200.000 83.594 L 316.406 83.594 316.406 133.203 M316.406 266.797 L 316.406 316.406 200.000 316.406 L 83.594 316.406 83.594 266.797 L 83.594 217.188 200.000 217.188 L 316.406 217.188 316.406 266.797 " stroke="none" fill="#000000" fill-rule="evenodd"></path></g></svg>