<svg id="svg" xmlns="http://www.w3.org/2000/svg" xmlns:xlink="http://www.w3.org/1999/xlink" width="400" height="400" viewBox="0, 0, 400,400"><g id="svgg"><path id="path0" d="M238.281 14.140 C 201.572 33.948,191.913 40.668,175.391 57.897 C 149.883 84.495,135.159 115.693,129.286 155.582 L 128.866 158.429 125.175 157.314 C 123.145 156.700,111.816 153.379,100.000 149.934 C 88.184 146.489,77.939 143.501,77.233 143.294 C 76.218 142.996,74.895 145.406,70.884 154.857 C 46.696 211.860,41.062 264.434,54.793 305.031 C 73.356 359.920,124.862 398.453,181.250 399.638 C 191.633 399.856,192.412 399.797,186.719 399.221 C 144.071 394.909,114.420 357.636,118.740 313.768 C 120.635 294.531,132.499 258.188,136.396 259.684 C 138.001 260.299,159.124 266.406,159.649 266.406 C 159.867 266.406,160.463 264.385,160.974 261.914 C 165.174 241.589,180.324 219.295,198.107 207.268 C 203.843 203.389,239.063 184.290,239.063 185.058 C 239.063 185.367,238.156 193.337,237.049 202.770 C 232.704 239.783,235.110 248.136,256.250 269.442 C 276.281 289.631,283.346 307.725,280.606 331.821 C 276.354 369.213,248.416 395.631,208.984 399.544 C 207.266 399.715,211.484 399.734,218.359 399.586 C 287.491 398.101,346.580 340.984,351.457 270.930 C 354.747 223.676,340.294 189.115,302.920 154.866 C 263.993 119.194,255.173 91.117,262.765 27.028 C 265.837 1.092,265.929 -0.004,265.039 0.009 C 264.717 0.013,252.676 6.372,238.281 14.140 M207.284 228.447 C 190.746 240.890,182.304 258.857,181.465 283.398 C 181.226 290.381,180.863 296.094,180.658 296.094 C 180.453 296.094,173.559 294.139,165.338 291.750 C 157.117 289.361,149.795 287.234,149.068 287.024 C 144.508 285.706,139.096 323.590,142.081 335.938 C 148.273 361.554,167.650 375.810,197.092 376.410 C 231.965 377.121,253.310 361.396,257.808 331.680 C 260.713 312.486,255.303 299.132,237.981 282.738 C 221.873 267.493,214.151 252.062,212.658 232.135 L 212.109 224.816 207.284 228.447 " stroke="none" fill="#000000" fill-rule="evenodd"></path></g></svg>