<svg id="svg" xmlns="http://www.w3.org/2000/svg" xmlns:xlink="http://www.w3.org/1999/xlink" width="400" height="400" viewBox="0, 0, 400,400"><g id="svgg"><path id="path0" d="M195.125 0.445 C 189.080 1.630,185.116 4.704,171.225 18.975 C 154.742 35.910,155.837 35.626,133.469 28.779 C 110.873 21.862,103.371 22.016,95.918 29.552 C 90.558 34.972,89.242 38.497,83.539 62.714 C 79.921 78.075,78.075 79.921,62.714 83.539 C 38.507 89.240,34.966 90.561,29.565 95.908 C 21.872 103.523,21.836 111.193,29.377 135.510 C 35.544 155.396,35.658 154.997,19.308 170.880 C 2.187 187.511,0.012 190.793,0.012 200.000 C 0.012 209.200,2.117 212.383,19.168 228.972 C 35.830 245.182,35.651 244.511,28.985 265.714 C 21.746 288.737,21.938 296.401,29.952 304.288 C 34.974 309.231,39.747 311.192,55.306 314.705 C 80.452 320.382,79.580 319.447,85.955 347.551 C 92.484 376.332,101.950 381.194,132.449 371.433 C 146.023 367.089,153.579 365.958,157.151 367.737 C 158.405 368.361,163.023 372.724,171.837 381.610 C 188.987 398.900,191.612 400.504,201.761 399.890 C 209.674 399.412,212.201 397.651,228.571 381.214 C 237.504 372.246,241.547 368.464,242.884 367.827 C 246.562 366.074,253.154 366.981,265.954 370.998 C 286.821 377.548,293.301 377.834,301.231 372.559 C 308.183 367.934,310.653 362.671,315.111 342.987 C 320.275 320.187,320.216 320.248,342.245 315.298 C 362.705 310.700,368.758 307.783,373.032 300.457 C 377.472 292.845,377.305 286.423,372.233 269.796 C 364.242 243.601,363.752 245.943,380.773 228.976 C 398.436 211.368,400.000 209.009,400.000 199.964 C 400.000 190.886,397.661 187.364,380.681 170.869 C 364.140 154.801,364.387 155.781,371.235 133.469 C 378.048 111.274,377.865 103.263,370.376 95.849 C 365.040 90.566,361.441 89.228,337.264 83.534 C 320.868 79.672,319.912 78.500,314.888 56.094 C 311.228 39.771,309.320 35.045,304.362 30.019 C 296.336 21.884,288.913 21.725,265.102 29.178 C 244.602 35.594,245.505 35.848,228.776 18.972 C 210.300 0.335,206.462 -1.778,195.125 0.445 M203.499 14.544 C 205.288 15.138,206.931 16.642,218.367 28.154 C 240.126 50.059,242.763 50.759,270.612 42.041 C 295.552 34.233,296.256 34.688,302.214 62.449 C 307.847 88.697,311.858 92.320,342.653 98.979 C 364.869 103.782,365.488 105.094,357.593 130.653 C 353.827 142.846,353.332 145.377,353.295 152.653 L 353.265 158.571 354.775 161.732 C 357.275 166.969,358.406 168.293,371.241 181.020 C 391.179 200.791,391.179 199.209,371.241 218.980 C 358.406 231.707,357.275 233.031,354.775 238.268 L 353.265 241.429 353.295 247.347 C 353.330 254.230,353.893 257.416,356.607 266.107 C 365.858 295.722,365.834 295.774,339.592 301.654 C 311.944 307.850,307.870 311.924,301.649 339.592 C 295.863 365.323,295.210 365.694,269.780 357.729 C 257.647 353.929,254.874 353.379,247.551 353.317 L 241.429 353.265 238.268 354.775 C 233.031 357.275,231.707 358.406,218.980 371.241 C 199.212 391.176,200.800 391.176,181.020 371.241 C 159.984 350.039,157.078 349.290,129.432 357.945 C 105.145 365.549,103.875 364.852,98.565 341.020 C 91.768 310.518,89.061 307.891,57.347 301.024 C 35.415 296.275,34.461 294.452,41.835 271.403 C 46.245 257.617,46.253 257.578,46.292 248.367 C 46.342 236.519,46.264 236.389,28.543 218.776 C 8.898 199.251,8.898 200.747,28.540 181.224 C 46.253 163.619,46.331 163.489,46.317 151.633 C 46.306 142.432,46.406 142.969,42.403 130.644 C 33.969 104.675,34.490 103.828,62.653 97.765 C 88.676 92.163,92.131 88.300,98.986 57.143 C 103.833 35.114,105.635 34.327,131.837 42.798 C 142.752 46.327,142.547 46.291,151.633 46.310 C 163.628 46.334,163.418 46.462,181.633 28.102 C 196.300 13.317,197.519 12.562,203.499 14.544 M87.549 151.808 C 87.099 151.993,85.767 153.011,84.590 154.069 L 82.449 155.994 82.449 200.000 L 82.449 244.006 84.586 245.927 C 89.355 250.215,94.658 248.466,95.529 242.317 C 95.854 240.022,96.711 200.040,96.729 186.342 L 96.735 181.867 115.408 209.815 C 143.542 251.922,142.910 251.238,149.082 246.301 L 151.429 244.424 151.429 200.016 L 151.429 155.609 149.694 154.194 C 145.627 150.878,141.749 151.037,139.253 154.621 C 137.888 156.581,137.846 157.422,137.595 187.680 L 137.347 217.606 121.837 194.423 C 97.893 158.635,94.084 153.231,92.305 152.526 C 90.156 151.675,88.486 151.422,87.549 151.808 M173.420 151.856 C 164.828 152.621,165.120 150.645,165.441 205.867 L 165.666 244.590 166.609 245.599 C 168.756 247.898,168.702 247.891,186.735 248.316 C 205.837 248.767,214.944 248.401,217.180 247.091 C 221.791 244.391,221.318 236.958,216.443 235.504 C 215.486 235.219,208.165 234.916,197.222 234.710 C 187.500 234.526,179.480 234.310,179.399 234.229 C 179.319 234.148,179.192 228.066,179.116 220.714 L 178.980 207.346 191.837 207.327 C 218.125 207.286,220.204 206.749,220.204 200.000 C 220.204 193.251,218.125 192.714,191.837 192.673 L 178.980 192.654 179.116 179.286 C 179.192 171.934,179.319 165.852,179.399 165.771 C 179.480 165.690,187.500 165.474,197.222 165.290 C 208.016 165.087,215.491 164.780,216.421 164.502 C 221.217 163.071,221.798 155.604,217.317 152.987 C 214.954 151.607,184.907 150.833,173.420 151.856 M237.940 152.756 C 233.654 155.645,233.789 157.017,244.295 217.347 C 249.756 248.708,249.565 248.163,255.099 248.163 C 260.064 248.163,259.866 248.534,274.680 211.623 C 279.002 200.853,282.633 191.884,282.749 191.692 C 282.864 191.500,286.395 199.857,290.595 210.263 C 306.218 248.967,305.802 248.190,310.953 248.302 C 316.190 248.416,316.461 247.477,323.640 204.286 C 332.181 152.902,331.752 157.077,328.813 153.966 C 327.165 152.223,326.894 152.091,324.648 151.952 C 318.792 151.588,318.369 152.760,313.065 184.082 C 307.782 215.278,307.933 214.559,307.021 212.830 C 305.893 210.693,303.276 204.522,298.377 192.449 C 288.212 167.402,287.706 166.493,283.757 166.208 C 278.148 165.802,278.379 165.406,265.431 197.551 C 261.950 206.194,258.956 213.420,258.778 213.609 C 258.099 214.332,256.921 208.629,252.852 184.898 C 248.696 160.664,247.535 155.226,246.199 153.723 C 244.408 151.710,240.220 151.220,237.940 152.756 " stroke="none" fill="#000000" fill-rule="evenodd"></path></g></svg>