<svg id="svg" xmlns="http://www.w3.org/2000/svg" xmlns:xlink="http://www.w3.org/1999/xlink" width="400" height="400" viewBox="0, 0, 400,400"><g id="svgg"><path id="path0" d="M281.639 15.627 L 266.027 31.253 294.533 59.767 L 323.039 88.281 316.012 88.296 C 144.651 88.662,5.746 219.502,0.232 385.742 L -0.240 400.000 22.098 400.000 L 44.436 400.000 44.838 396.680 C 45.059 394.854,45.424 388.965,45.650 383.594 C 48.614 313.108,85.580 240.705,142.201 194.483 C 189.917 155.530,243.759 135.736,307.031 133.886 L 323.047 133.418 294.537 162.020 L 266.027 190.622 282.032 206.641 L 298.037 222.661 347.433 173.270 C 403.147 117.562,400.438 120.842,399.836 109.803 C 399.625 105.922,398.960 102.469,398.100 100.781 C 396.635 97.907,299.442 0.000,298.054 0.000 C 297.612 0.000,290.226 7.032,281.639 15.627 " stroke="none" fill="#000000" fill-rule="evenodd"></path></g></svg>