<svg id="svg" xmlns="http://www.w3.org/2000/svg" xmlns:xlink="http://www.w3.org/1999/xlink" width="400" height="400" viewBox="0, 0, 400,400"><g id="svgg"><path id="path0" d="M188.201 1.758 C 185.932 3.261,165.427 41.423,163.179 48.330 C 162.931 49.091,156.219 50.352,139.683 52.747 C 111.639 56.806,112.263 56.674,109.250 59.209 C 105.101 62.701,103.506 69.274,105.479 74.754 C 105.916 75.966,114.359 84.847,124.290 94.540 L 142.308 112.126 138.277 135.555 C 133.153 165.332,133.430 168.587,141.441 172.674 C 147.991 176.016,148.156 175.959,179.297 159.544 C 187.891 155.014,195.273 151.310,195.703 151.311 C 196.133 151.313,205.977 156.338,217.578 162.477 C 241.226 174.992,243.807 175.816,249.798 172.759 C 258.011 168.569,258.289 165.438,253.094 135.591 L 249.022 112.198 267.441 94.185 C 287.393 74.673,287.491 74.534,286.495 67.109 C 285.317 58.331,282.774 57.257,252.748 52.852 C 239.435 50.899,228.447 49.014,228.331 48.664 C 225.678 40.705,205.928 3.744,203.415 2.036 C 199.353 -0.724,192.148 -0.856,188.201 1.758 M211.745 72.675 C 213.611 74.004,217.068 74.850,226.429 76.270 C 233.162 77.292,239.862 78.328,241.317 78.572 L 243.961 79.017 232.986 90.094 C 223.789 99.377,221.920 101.662,221.447 104.197 C 220.960 106.816,223.954 129.187,225.524 134.657 C 225.838 135.749,222.665 134.396,212.776 129.220 C 195.258 120.052,196.149 120.051,178.600 129.236 C 166.701 135.464,165.448 135.960,165.850 134.282 C 167.853 125.915,170.461 106.895,169.968 104.247 C 169.484 101.649,167.696 99.456,158.445 90.119 C 147.752 79.326,147.546 79.056,149.723 78.622 C 150.950 78.378,157.227 77.435,163.672 76.528 C 180.669 74.134,180.065 74.591,188.672 57.625 L 195.702 43.765 202.504 57.352 C 207.493 67.318,209.956 71.401,211.745 72.675 M131.970 200.995 C 125.844 205.124,125.781 205.414,125.781 229.803 L 125.781 251.563 69.500 251.563 C 6.052 251.563,9.291 251.258,5.352 257.593 L 3.516 260.547 3.516 325.391 C 3.516 397.462,3.238 393.686,8.843 397.747 L 11.953 400.000 200.000 400.000 L 388.047 400.000 391.157 397.747 C 396.588 393.813,396.484 394.712,396.484 351.563 L 396.484 312.891 394.648 309.937 C 390.709 303.602,393.948 303.906,330.500 303.906 L 274.219 303.906 274.219 255.975 L 274.219 208.044 272.442 205.408 C 271.465 203.958,269.480 201.972,268.030 200.995 L 265.394 199.219 200.000 199.219 L 134.606 199.219 131.970 200.995 M247.656 299.609 L 247.656 373.438 200.000 373.438 L 152.344 373.438 152.344 299.609 L 152.344 225.781 200.000 225.781 L 247.656 225.781 247.656 299.609 M125.781 325.781 L 125.781 373.438 78.125 373.438 L 30.469 373.438 30.469 325.781 L 30.469 278.125 78.125 278.125 L 125.781 278.125 125.781 325.781 M369.531 351.953 L 369.531 373.438 321.875 373.438 L 274.219 373.438 274.219 351.953 L 274.219 330.469 321.875 330.469 L 369.531 330.469 369.531 351.953 " stroke="none" fill="#000000" fill-rule="evenodd"></path></g></svg>