<svg id="svg" xmlns="http://www.w3.org/2000/svg" xmlns:xlink="http://www.w3.org/1999/xlink" width="400" height="400" viewBox="0, 0, 400,400"><g id="svgg"><path id="path0" d="M191.317 1.642 C 187.554 3.302,53.654 118.577,50.456 122.909 C 48.181 125.991,48.172 133.381,50.439 136.418 C 54.579 141.963,53.451 141.773,83.650 142.021 L 110.938 142.245 110.938 271.123 L 110.938 400.000 200.000 400.000 L 289.063 400.000 289.063 271.094 L 289.063 142.188 315.664 142.188 C 345.188 142.188,344.984 142.219,348.957 137.009 C 351.786 133.300,352.079 126.356,349.552 122.911 C 346.081 118.180,212.757 3.428,208.706 1.685 C 203.558 -0.529,196.279 -0.548,191.317 1.642 M205.595 12.699 C 210.280 15.571,340.625 128.941,340.625 130.144 C 340.625 131.079,335.806 131.250,309.375 131.250 L 278.125 131.250 278.125 260.156 L 278.125 389.063 203.625 389.063 C 162.649 389.063,127.493 389.286,125.500 389.559 L 121.875 390.056 121.875 260.662 L 121.875 131.268 90.885 131.064 C 68.573 130.917,59.813 130.610,59.599 129.970 C 59.289 129.039,189.567 15.748,194.454 12.699 C 196.000 11.735,198.496 10.946,200.000 10.946 C 201.504 10.946,204.022 11.735,205.595 12.699 " stroke="none" fill="#000000" fill-rule="evenodd"></path></g></svg>