<svg id="svg" xmlns="http://www.w3.org/2000/svg" xmlns:xlink="http://www.w3.org/1999/xlink" width="400" height="400" viewBox="0, 0, 400,400"><g id="svgg"><path id="path0" d="M141.797 13.671 C 173.809 13.907,226.191 13.907,258.203 13.671 C 290.215 13.435,264.023 13.242,200.000 13.242 C 135.977 13.242,109.785 13.435,141.797 13.671 M75.043 18.659 C 70.340 20.293,66.062 21.364,65.536 21.039 C 65.010 20.714,61.475 23.683,57.681 27.637 C 53.886 31.591,51.751 34.275,52.937 33.602 C 54.123 32.929,54.789 33.003,54.417 33.767 C 54.046 34.531,52.372 37.969,50.699 41.406 C 47.677 47.614,45.732 361.219,48.626 375.659 C 49.537 380.203,54.984 385.943,58.376 385.932 C 59.355 385.928,57.871 384.533,55.078 382.830 C 52.285 381.127,50.000 379.382,50.000 378.952 C 50.000 378.522,52.285 379.564,55.078 381.267 C 63.083 386.148,63.485 386.007,133.561 353.821 L 200.083 323.267 250.005 346.217 C 277.462 358.840,299.555 369.768,299.101 370.503 C 298.647 371.238,299.222 371.476,300.378 371.032 C 301.535 370.588,309.294 373.409,317.621 377.300 C 334.607 385.237,337.678 385.684,344.922 381.267 C 347.715 379.564,350.000 378.522,350.000 378.952 C 350.000 379.382,347.715 381.127,344.922 382.830 C 342.129 384.533,340.628 385.928,341.586 385.932 C 344.229 385.941,351.704 379.618,350.793 378.144 C 350.354 377.433,350.718 375.204,351.604 373.191 L 353.213 369.531 352.475 373.272 C 352.069 375.329,352.225 376.384,352.822 375.616 C 353.418 374.847,353.555 300.742,353.125 210.938 L 352.344 47.656 348.660 40.625 C 346.633 36.758,343.118 31.443,340.847 28.815 C 338.577 26.187,339.817 27.241,343.604 31.159 C 347.391 35.076,349.731 36.875,348.806 35.156 C 347.880 33.438,344.151 29.219,340.519 25.781 C 336.887 22.344,334.469 20.501,335.144 21.687 C 335.820 22.873,335.747 23.539,334.983 23.167 C 334.219 22.796,330.781 21.122,327.344 19.449 C 317.671 14.740,88.387 14.022,75.043 18.659 M65.625 22.350 C 65.625 22.611,62.988 25.248,59.766 28.209 L 53.906 33.594 59.291 27.734 C 64.303 22.281,65.625 21.157,65.625 22.350 M47.491 41.560 C 46.199 44.652,45.356 48.123,45.618 49.274 C 45.880 50.425,47.202 47.895,48.557 43.652 C 51.438 34.631,50.860 33.497,47.491 41.560 M315.277 50.870 L 318.750 53.302 318.750 196.964 C 318.750 275.977,318.297 340.625,317.743 340.625 C 317.189 340.625,291.500 329.023,260.657 314.844 C 229.432 300.489,202.587 289.063,200.085 289.062 C 197.586 289.062,170.666 300.506,139.437 314.844 C 108.552 329.023,82.825 340.625,82.266 340.625 C 81.707 340.625,81.250 275.977,81.250 196.964 L 81.250 53.302 84.723 50.870 C 89.993 47.178,310.007 47.178,315.277 50.870 M83.532 53.516 C 83.123 54.590,82.969 119.453,83.191 197.656 L 83.594 339.844 84.375 195.703 C 84.805 116.426,84.958 51.562,84.717 51.562 C 84.475 51.562,83.942 52.441,83.532 53.516 M315.625 195.781 L 316.406 339.844 316.805 196.961 C 317.024 118.376,316.673 53.548,316.024 52.899 C 315.375 52.249,315.195 116.546,315.625 195.781 M189.063 289.063 C 182.470 292.672,184.080 293.228,190.905 289.699 C 195.614 287.264,203.494 287.264,210.156 289.699 C 212.134 290.422,211.847 289.961,209.375 288.445 C 204.072 285.191,195.667 285.447,189.063 289.063 M223.438 296.094 C 227.305 298.165,231.172 299.859,232.031 299.859 C 232.891 299.859,230.430 298.165,226.563 296.094 C 222.695 294.023,218.828 292.329,217.969 292.329 C 217.109 292.329,219.570 294.023,223.438 296.094 M171.875 296.875 C 168.867 298.522,167.109 299.869,167.969 299.869 C 168.828 299.869,171.992 298.522,175.000 296.875 C 178.008 295.228,179.766 293.881,178.906 293.881 C 178.047 293.881,174.883 295.228,171.875 296.875 M153.125 305.469 C 149.258 307.540,146.797 309.234,147.656 309.234 C 148.516 309.234,152.383 307.540,156.250 305.469 C 160.117 303.398,162.578 301.704,161.719 301.704 C 160.859 301.704,156.992 303.398,153.125 305.469 M243.750 305.469 C 247.617 307.540,251.484 309.234,252.344 309.234 C 253.203 309.234,250.742 307.540,246.875 305.469 C 243.008 303.398,239.141 301.704,238.281 301.704 C 237.422 301.704,239.883 303.398,243.750 305.469 M132.813 314.844 C 128.945 316.915,126.484 318.609,127.344 318.609 C 128.203 318.609,132.070 316.915,135.938 314.844 C 139.805 312.773,142.266 311.079,141.406 311.079 C 140.547 311.079,136.680 312.773,132.813 314.844 M264.063 314.844 C 267.930 316.915,271.797 318.609,272.656 318.609 C 273.516 318.609,271.055 316.915,267.188 314.844 C 263.320 312.773,259.453 311.079,258.594 311.079 C 257.734 311.079,260.195 312.773,264.063 314.844 M112.500 324.219 C 108.633 326.290,106.172 327.984,107.031 327.984 C 107.891 327.984,111.758 326.290,115.625 324.219 C 119.492 322.148,121.953 320.454,121.094 320.454 C 120.234 320.454,116.367 322.148,112.500 324.219 M282.813 323.438 C 285.820 325.084,288.984 326.432,289.844 326.432 C 290.703 326.432,288.945 325.084,285.938 323.438 C 282.930 321.791,279.766 320.443,278.906 320.443 C 278.047 320.443,279.805 321.791,282.813 323.438 M184.375 332.031 C 180.508 334.102,178.047 335.796,178.906 335.796 C 179.766 335.796,183.633 334.102,187.500 332.031 C 191.367 329.960,193.828 328.266,192.969 328.266 C 192.109 328.266,188.242 329.960,184.375 332.031 M212.500 332.031 C 216.367 334.102,220.234 335.796,221.094 335.796 C 221.953 335.796,219.492 334.102,215.625 332.031 C 211.758 329.960,207.891 328.266,207.031 328.266 C 206.172 328.266,208.633 329.960,212.500 332.031 M301.563 332.031 C 305.430 334.102,309.297 335.796,310.156 335.796 C 311.016 335.796,308.555 334.102,304.688 332.031 C 300.820 329.960,296.953 328.266,296.094 328.266 C 295.234 328.266,297.695 329.960,301.563 332.031 M93.750 332.813 C 90.742 334.459,88.984 335.807,89.844 335.807 C 90.703 335.807,93.867 334.459,96.875 332.813 C 99.883 331.166,101.641 329.818,100.781 329.818 C 99.922 329.818,96.758 331.166,93.750 332.813 M164.063 341.406 C 160.195 343.477,157.734 345.171,158.594 345.171 C 159.453 345.171,163.320 343.477,167.188 341.406 C 171.055 339.335,173.516 337.641,172.656 337.641 C 171.797 337.641,167.930 339.335,164.063 341.406 M231.250 340.625 C 234.258 342.272,237.422 343.619,238.281 343.619 C 239.141 343.619,237.383 342.272,234.375 340.625 C 231.367 338.978,228.203 337.631,227.344 337.631 C 226.484 337.631,228.242 338.978,231.250 340.625 M250.000 349.219 C 253.867 351.290,257.734 352.984,258.594 352.984 C 259.453 352.984,256.992 351.290,253.125 349.219 C 249.258 347.148,245.391 345.454,244.531 345.454 C 243.672 345.454,246.133 347.148,250.000 349.219 M143.750 350.781 C 139.883 352.852,137.422 354.546,138.281 354.546 C 139.141 354.546,143.008 352.852,146.875 350.781 C 150.742 348.710,153.203 347.016,152.344 347.016 C 151.484 347.016,147.617 348.710,143.750 350.781 M270.313 358.594 C 274.180 360.665,278.047 362.359,278.906 362.359 C 279.766 362.359,277.305 360.665,273.438 358.594 C 269.570 356.523,265.703 354.829,264.844 354.829 C 263.984 354.829,266.445 356.523,270.313 358.594 M125.000 359.375 C 121.992 361.022,120.234 362.369,121.094 362.369 C 121.953 362.369,125.117 361.022,128.125 359.375 C 131.133 357.728,132.891 356.381,132.031 356.381 C 131.172 356.381,128.008 357.728,125.000 359.375 M106.250 367.969 C 102.383 370.040,99.922 371.734,100.781 371.734 C 101.641 371.734,105.508 370.040,109.375 367.969 C 113.242 365.898,115.703 364.204,114.844 364.204 C 113.984 364.204,110.117 365.898,106.250 367.969 M289.063 367.188 C 292.070 368.834,295.234 370.182,296.094 370.182 C 296.953 370.182,295.195 368.834,292.188 367.188 C 289.180 365.541,286.016 364.193,285.156 364.193 C 284.297 364.193,286.055 365.541,289.063 367.188 M85.938 377.344 C 82.070 379.415,79.609 381.109,80.469 381.109 C 81.328 381.109,85.195 379.415,89.063 377.344 C 92.930 375.273,95.391 373.579,94.531 373.579 C 93.672 373.579,89.805 375.273,85.938 377.344 M309.375 376.563 C 312.383 378.209,315.547 379.557,316.406 379.557 C 317.266 379.557,315.508 378.209,312.500 376.563 C 309.492 374.916,306.328 373.568,305.469 373.568 C 304.609 373.568,306.367 374.916,309.375 376.563 M326.563 384.375 C 329.570 386.022,333.789 387.327,335.938 387.275 C 339.466 387.189,339.391 387.071,335.156 386.049 C 332.578 385.427,328.933 384.092,327.056 383.084 C 325.179 382.075,323.069 381.279,322.368 381.315 C 321.667 381.352,323.555 382.728,326.563 384.375 " stroke="none" fill="#000000" fill-rule="evenodd"></path></g></svg>